<svg width="38" height="38" viewBox="0 0 38 38" fill="none" xmlns="http://www.w3.org/2000/svg">
<path fill-rule="evenodd" clip-rule="evenodd" d="M32.1742 23.7057C32.1742 26.0517 30.3441 27.6743 28.0253 27.6743C25.6802 27.6743 23.851 26.0517 23.851 23.7057V13.81C23.851 11.4657 25.6802 9.86765 28.0253 9.86765C30.3441 9.86765 32.1742 11.4657 32.1742 13.81V23.7057ZM22.5156 27.3385H20.6082L20.2742 26.18C19.8092 27.1328 18.83 27.6743 17.8517 27.6743C15.6094 27.6743 14.1916 26.0517 14.1916 23.8085V13.7071C14.1916 11.6722 15.8933 9.86765 18.3404 9.86765C20.7884 9.86765 22.3864 11.6722 22.3864 13.7071V16.5419H19.2687V13.6561C19.2687 13.1665 18.9592 12.8571 18.3923 12.8571C17.8517 12.8571 17.5414 13.1665 17.5414 13.6561V23.9368C17.5414 24.4273 17.8772 24.7868 18.4178 24.7868C18.9847 24.7868 19.3196 24.4273 19.3196 23.9368V21.1293H18.4433V18.8088H22.5156V27.3385ZM13.0815 13.0891H9.537V17.1861H11.9595V19.8653H9.537V24.3244H13.0815V27.3386H6.23815V10.177H13.0815V13.0891ZM18.7705 0C8.4031 0 0 8.4048 0 18.7714C0 29.138 8.4031 37.542 18.7705 37.542C29.138 37.542 37.5411 29.138 37.5411 18.7714C37.5411 8.4048 29.138 0 18.7705 0V0Z" fill="#12110F"/>
<path fill-rule="evenodd" clip-rule="evenodd" d="M28.0252 12.8574C27.5875 12.8574 27.2271 13.1405 27.2271 13.6046V23.9117C27.2271 24.3758 27.5875 24.6588 28.0252 24.6588C28.4638 24.6588 28.7987 24.3758 28.7987 23.9117V13.6046C28.7987 13.1405 28.4638 12.8574 28.0252 12.8574" fill="#12110F"/>
</svg>
